# xmcd
#
# Track frame offsets: 
#        150
#        26399
#        50304
#        76830
#        96464
#        125957
#        155400
#
# Disc length: 2446 seconds
#
# Revision: 1
# Processed by: cddbd v1.5.2PL0 Copyright (c) Steve Scherf et al.
# Submitted via: ExactAudioCopy v1.3
#
DISCID=52098c07
DTITLE=Akira Miyazawa - Yamame 
DYEAR=1962
DGENRE=Jazz
TTITLE0=Yamame
TTITLE1=Memories Through Thick Glasses
TTITLE2=Fly Casting
TTITLE3=Like Someone In Love
TTITLE4=Out Of Nowhere
TTITLE5=Le Crepuscule Embaume
TTITLE6=Like Sonny
EXTD=YEAR: 1962
EXTT0=
EXTT1=
EXTT2=
EXTT3=
EXTT4=
EXTT5=
EXTT6=
PLAYORDER=
